# File created by Blade
# Date/Time:  Wed Jan 21 17:10:37 2015
# Frame Rate: 120.000 fps
#------------------------------------------------------
:FULLY-SPECIFIED
:DEGREES
1135
root 19.598489 7.446909 -12.644306 -224.186985 -5.738776 -178.044675
Spine 68.772693 1.503453 1.675101
Head 17.429163 -2.589875 7.024631
LeftShoulder -3.674519 -15.640771 6.875905
LeftArm -3.746490 57.795590 -84.996020
LeftForeArm 17.834985 -0.000000 10.476369
LeftHand -7.452375 -0.000000 16.724655
LeftHandThumb1 -26.253704 0.000000 33.147579
RightShoulder -1.635278 -20.085081 0.645156
RightArm 33.279622 -38.749297 53.030448
RightForeArm -33.591807 -0.000000 27.885282
RightHand -14.054898 0.000000 -7.259158
RightHandThumb1 -24.326973 -0.000000 -32.862282
LeftUpLeg -77.334475 -3.410203 3.450026
LeftLeg 70.714020 -0.000000 -0.000000
LeftFoot 6.867365 36.339829 4.966010
LeftToeBase 19.269347 -0.000000 -0.000000
RightUpLeg -85.068143 -3.430389 0.075027
RightLeg 140.086136 -0.000000 -0.000000
RightFoot -31.162277 -33.913629 10.466447
RightToeBase 15.360622 -0.000000 -0.000000
1136
root 19.632703 7.579006 -12.693329 -224.135128 -5.919994 -178.113253
Spine 69.029069 1.783196 1.278105
Head 17.356106 -2.571242 7.501265
LeftShoulder -3.656937 -15.783950 6.521302
LeftArm -3.160517 57.660516 -84.274545
LeftForeArm 18.038497 0.000000 9.352608
LeftHand -7.291125 0.000000 16.741175
LeftHandThumb1 -26.253704 0.000000 33.147579
RightShoulder -1.439477 -19.894813 1.461779
RightArm 33.596977 -38.405588 52.900827
RightForeArm -33.967307 0.000000 26.475581
RightHand -13.754878 -0.000000 -7.351042
RightHandThumb1 -24.326973 -0.000000 -32.862282
LeftUpLeg -78.238650 -3.366738 3.243228
LeftLeg 72.554975 -0.000000 -0.000000
LeftFoot 7.012359 36.261028 4.653684
LeftToeBase 19.507572 -0.000000 -0.000000
RightUpLeg -84.372178 -3.332790 0.069218
RightLeg 139.986678 -0.000000 -0.000000
RightFoot -31.894403 -34.163759 10.843008
RightToeBase 15.707300 -0.000000 -0.000000
1137
root 19.657324 7.706537 -12.749990 -224.158825 -6.062875 -178.182818
Spine 69.333696 2.086139 1.088104
Head 17.309451 -2.773646 7.854531
LeftShoulder -3.453104 -15.982522 6.085525
LeftArm -2.739310 57.680043 -83.663799
LeftForeArm 18.082543 -0.000000 8.287916
LeftHand -7.105878 0.000000 17.013887
LeftHandThumb1 -26.253704 0.000000 33.147579
RightShoulder -1.343253 -19.740396 2.185658
RightArm 33.805920 -38.006090 52.844950
RightForeArm -34.040798 -0.000000 25.279787
RightHand -13.353200 -0.000000 -7.080416
RightHandThumb1 -24.326973 -0.000000 -32.862282
LeftUpLeg -79.059832 -3.332892 3.071738
LeftLeg 74.493829 -0.000000 -0.000000
LeftFoot 6.677825 36.098282 4.253636
LeftToeBase 19.902458 -0.000000 -0.000000
RightUpLeg -83.637897 -3.247756 0.061325
RightLeg 139.915379 -0.000000 -0.000000
RightFoot -32.676876 -34.303661 11.346767
RightToeBase 15.948880 -0.000000 -0.000000
1138
root 19.673138 7.829528 -12.806516 -224.202170 -6.272662 -178.231071
Spine 69.638946 2.268676 0.847941
Head 17.325201 -2.923398 8.092221
LeftShoulder -3.243549 -16.165791 5.633582
LeftArm -2.441563 57.579564 -83.056139
LeftForeArm 18.176204 0.000000 7.434876
LeftHand -6.810531 -0.000000 16.889735
LeftHandThumb1 -26.253704 0.000000 33.147579
RightShoulder -1.088557 -19.568369 2.807484
RightArm 33.782862 -37.507178 52.968986
RightForeArm -33.976704 0.000000 24.248283
RightHand -12.966151 -0.000000 -6.733122
RightHandThumb1 -24.326973 -0.000000 -32.862282
LeftUpLeg -79.811447 -3.435488 2.944714
LeftLeg 76.437062 -0.000000 -0.000000
LeftFoot 6.034244 35.785473 3.900911
LeftToeBase 20.078459 -0.000000 -0.000000
RightUpLeg -82.914640 -3.324055 -0.015984
RightLeg 139.868135 -0.000000 -0.000000
RightFoot -33.377191 -34.307858 11.826856
RightToeBase 16.100270 -0.000000 -0.000000
1139
root 19.688895 7.941110 -12.877179 -224.270948 -6.387748 -178.367146
Spine 69.931418 2.585358 0.642752
Head 17.366107 -3.090608 8.331240
LeftShoulder -3.031792 -16.316214 5.219565
LeftArm -2.224189 57.570615 -82.512926
LeftForeArm 18.245742 0.000000 6.673096
LeftHand -6.541208 -0.000000 16.723896
LeftHandThumb1 -26.253704 0.000000 33.147579
RightShoulder -0.877945 -19.481313 3.380678
RightArm 33.824416 -37.060856 53.028909
RightForeArm -33.794943 -0.000000 23.243695
RightHand -12.287274 -0.000000 -6.229224
RightHandThumb1 -24.326973 -0.000000 -32.862282
LeftUpLeg -80.524141 -3.366125 2.811161
LeftLeg 78.517843 -0.000000 -0.000000
LeftFoot 5.117464 35.293930 3.688855
LeftToeBase 20.067547 -0.000000 -0.000000
RightUpLeg -82.233502 -3.272944 -0.033198
RightLeg 139.847348 -0.000000 -0.000000
RightFoot -34.163188 -34.452102 12.394512
RightToeBase 16.461074 -0.000000 -0.000000
1140
root 19.704771 8.042877 -12.944503 -224.358488 -6.520687 -178.458480
Spine 70.231948 2.834589 0.465984
Head 17.411739 -3.260155 8.505412
LeftShoulder -2.800829 -16.490847 4.864072
LeftArm -2.115867 57.642921 -82.103572
LeftForeArm 18.266725 -0.000000 5.986257
LeftHand -6.326331 -0.000000 16.544717
LeftHandThumb1 -26.253704 0.000000 33.147579
RightShoulder -0.664747 -19.555897 3.860213
RightArm 34.101209 -36.613865 52.923841
RightForeArm -33.006269 -0.000000 22.373753
RightHand -11.860996 -0.000000 -5.722488
RightHandThumb1 -24.326973 -0.000000 -32.862282
LeftUpLeg -81.275613 -3.314523 2.677145
LeftLeg 80.678777 -0.000000 -0.000000
LeftFoot 4.093161 34.788260 3.030665
LeftToeBase 20.082137 -0.000000 -0.000000
RightUpLeg -81.540260 -3.182337 -0.109885
RightLeg 139.833664 -0.000000 -0.000000
RightFoot -34.840660 -34.467562 12.843626
RightToeBase 16.898100 -0.000000 -0.000000
1141
root 19.728664 8.136158 -13.020993 -224.470854 -6.538737 -178.487654
Spine 70.511195 3.072417 0.415785
Head 17.519541 -3.351413 8.623325
LeftShoulder -2.591505 -16.664505 4.495855
LeftArm -2.149431 57.685124 -81.778932
LeftForeArm 18.388013 -0.000000 5.429160
LeftHand -6.107910 0.000000 16.333796
LeftHandThumb1 -26.253704 0.000000 33.147579
RightShoulder -0.429934 -19.591241 4.254738
RightArm 34.312830 -36.318376 52.860415
RightForeArm -32.628992 0.000000 21.353279
RightHand -11.334121 -0.000000 -5.730104
RightHandThumb1 -24.326973 -0.000000 -32.862282
LeftUpLeg -81.987502 -3.231676 2.726468
LeftLeg 82.927346 -0.000000 -0.000000
LeftFoot 3.061868 34.270098 2.694988
LeftToeBase 20.035501 -0.000000 -0.000000
RightUpLeg -80.880009 -3.088532 -0.017370
RightLeg 139.839544 -0.000000 -0.000000
RightFoot -35.347097 -34.596308 13.034468
RightToeBase 17.130222 -0.000000 -0.000000
1142
root 19.729093 8.225086 -13.107827 -224.654489 -6.636498 -178.659581
Spine 70.860253 3.315352 0.209061
Head 17.613724 -3.460748 8.667655
LeftShoulder -2.430448 -16.776240 4.141351
LeftArm -2.173377 57.861484 -81.430691
LeftForeArm 18.351946 0.000000 5.019964
LeftHand -5.922014 -0.000000 16.090993
LeftHandThumb1 -26.253704 0.000000 33.147579
RightShoulder -0.251173 -19.735091 4.593353
RightArm 34.701549 -36.021717 52.684938
RightForeArm -32.012937 -0.000000 20.420702
RightHand -11.018403 -0.000000 -5.503241
RightHandThumb1 -24.326973 -0.000000 -32.862282
LeftUpLeg -82.571274 -3.223208 2.641186
LeftLeg 85.246672 -0.000000 -0.000000
LeftFoot 1.855910 34.044580 2.149170
LeftToeBase 20.135114 -0.000000 -0.000000
RightUpLeg -80.169934 -2.995243 -0.162607
RightLeg 139.912371 -0.000000 -0.000000
RightFoot -35.905015 -34.691035 13.310434
RightToeBase 17.332577 -0.000000 -0.000000
1143
root 19.709140 8.294686 -13.191309 -224.743775 -6.786923 -178.864409
Spine 71.057716 3.530990 0.081496
Head 17.794681 -3.676275 8.650039
LeftShoulder -2.157483 -16.849324 3.745273
LeftArm -2.257602 57.968293 -81.193287
LeftForeArm 18.411104 -0.000000 4.608977
LeftHand -5.764415 -0.000000 15.932525
LeftHandThumb1 -26.253704 0.000000 33.147579
RightShoulder -0.255732 -19.965890 4.893779
RightArm 35.223650 -35.778169 52.408655
RightForeArm -31.290993 0.000000 19.442436
RightHand -10.571223 -0.000000 -5.229024
RightHandThumb1 -24.326973 -0.000000 -32.862282
LeftUpLeg -83.246144 -3.319814 2.549841
LeftLeg 87.611268 -0.000000 -0.000000
LeftFoot 0.817819 33.889623 1.708700
LeftToeBase 19.992972 -0.000000 -0.000000
RightUpLeg -79.654820 -3.041348 -0.440745
RightLeg 140.033571 -0.000000 -0.000000
RightFoot -36.391669 -34.594240 13.509657
RightToeBase 17.757515 -0.000000 -0.000000
1144
root 19.711436 8.357980 -13.280440 -224.861112 -6.806069 -178.987739
Spine 71.272225 3.751413 0.017173
Head 17.940720 -3.865914 8.593508
LeftShoulder -2.022990 -16.817359 3.402790
LeftArm -2.136729 58.321050 -80.843508
LeftForeArm 18.373450 -0.000000 4.116004
LeftHand -5.726985 -0.000000 15.940430
LeftHandThumb1 -26.253704 0.000000 33.147579
RightShoulder -0.182221 -20.027370 5.123359
RightArm 35.592215 -35.721751 52.226481
RightForeArm -30.758115 -0.000000 18.493596
RightHand -10.047456 -0.000000 -4.928026
RightHandThumb1 -24.326973 -0.000000 -32.862282
LeftUpLeg -83.904779 -3.303218 2.589085
LeftLeg 90.038788 -0.000000 -0.000000
LeftFoot -0.104413 33.880947 1.346582
LeftToeBase 19.720214 -0.000000 -0.000000
RightUpLeg -79.125754 -2.988107 -0.488824
RightLeg 140.157997 -0.000000 -0.000000
RightFoot -36.910927 -34.500990 13.773979
RightToeBase 18.096489 -0.000000 -0.000000
1145
root 19.706295 8.400982 -13.364764 -224.927455 -6.844223 -179.040229
Spine 71.408643 3.821990 -0.067680
Head 18.083064 -3.893123 8.476813
LeftShoulder -2.002493 -16.723963 3.138387
LeftArm -1.951931 58.443382 -80.501403
LeftForeArm 18.264312 -0.000000 3.715056
LeftHand -5.498604 -0.000000 15.770808
LeftHandThumb1 -26.253704 0.000000 33.147579
RightShoulder -0.123072 -20.072142 5.236894
RightArm 36.004838 -35.721219 52.055726
RightForeArm -30.089476 -0.000000 17.552183
RightHand -9.740490 -0.000000 -4.778081
RightHandThumb1 -24.326973 -0.000000 -32.862282
LeftUpLeg -84.635129 -3.378014 2.710996
LeftLeg 92.503232 -0.000000 -0.000000
LeftFoot -0.715350 33.758062 1.530051
LeftToeBase 19.520468 -0.000000 -0.000000
RightUpLeg -78.730408 -3.039938 -0.517525
RightLeg 140.305037 -0.000000 -0.000000
RightFoot -37.355823 -34.388711 14.001688
RightToeBase 18.243422 -0.000000 -0.000000
1146
root 19.702581 8.435019 -13.450292 -224.965864 -6.872653 -179.084182
Spine 71.501798 3.869137 -0.152582
Head 18.227626 -3.907408 8.327676
LeftShoulder -1.988218 -16.716890 2.858481
LeftArm -2.034977 58.565778 -80.369545
LeftForeArm 18.334537 -0.000000 3.340783
LeftHand -5.373782 -0.000000 15.840150
LeftHandThumb1 -26.253704 0.000000 33.147579
RightShoulder -0.038335 -20.053919 5.304078
RightArm 36.308760 -35.772970 51.979335
RightForeArm -29.513521 -0.000000 16.646725
RightHand -9.257514 -0.000000 -4.366617
RightHandThumb1 -24.326973 -0.000000 -32.862282
LeftUpLeg -85.364164 -3.439018 2.776223
LeftLeg 94.948342 -0.000000 -0.000000
LeftFoot -1.694467 33.944707 1.208647
LeftToeBase 19.529471 -0.000000 -0.000000
RightUpLeg -78.383277 -3.085600 -0.553912
RightLeg 140.451201 -0.000000 -0.000000
RightFoot -37.923696 -34.395330 14.200391
RightToeBase 18.681304 -0.000000 -0.000000
